#!OML:ASF G:\JayActor3\Patient Classification 1\Patient 1\Session 5\male.ASF
:FULLY-SPECIFIED
:DEGREES
538
root 10.2566 16.0199 -5.74395 117.752 84.0239 98.657
lowerback 23.4954 -1.60495 -1.73532
upperback 6.63964 -2.07516 -1.71178
thorax -5.78444 -0.772644 -0.310148
lowerneck 4.14275 -1.10217 0.425647
upperneck -10.4595 -1.19662 1.68692
head -4.15334 -0.65113 0.543843
rclavicle 3.37685e-014 3.05134e-014
rhumerus -35.0832 -1.85465 -86.3092
rradius 30.5219
rwrist -1.36943
rhand -20.9584 -8.32266
rfingers 7.12502
rthumb 5.41451 -38.2335
lclavicle 3.37685e-014 3.05134e-014
lhumerus -36.2278 -0.81348 87.1118
lradius 27.765
lwrist 23.4349
lhand -15.0363 8.23435
lfingers 7.12502
lthumb 11.1297 37.9192
rfemur -60.2053 4.11066 10.7946
rtibia 32.5314
rfoot -17.5821 -12.9227
rtoes -0.211005
lfemur -7.5837 5.2976 -30.9515
ltibia 25.312
lfoot -22.8634 2.05629
ltoes -9.18155
539
root 10.4495 15.968 -5.72318 119.46 84.1422 100.453
lowerback 23.4675 -1.63182 -1.52095
upperback 6.62322 -2.05805 -1.63572
thorax -5.79402 -0.766819 -0.354942
lowerneck 4.20779 -1.11966 0.389236
upperneck -10.4765 -1.22163 1.69939
head -4.17192 -0.663215 0.556445
rclavicle 6.85807e-015 3.10601e-014
rhumerus -35.1962 -1.95683 -86.1904
rradius 30.4798
rwrist -1.30428
rhand -21.0017 -8.31313
rfingers 7.12502
rthumb 5.37272 -38.225
lclavicle 6.85807e-015 3.10601e-014
lhumerus -36.2937 -0.724827 87.1038
lradius 27.7599
lwrist 23.4009
lhand -15.0224 8.25891
lfingers 7.12502
lthumb 11.1431 37.943
rfemur -60.5514 4.18519 11.1193
rtibia 34.191
rfoot -16.1745 -12.8934
rtoes 1.89153
lfemur -6.85783 5.29367 -30.4894
ltibia 25.5866
lfoot -23.151 1.82133
ltoes -10.0891
540
root 10.6394 15.9186 -5.70285 120.912 84.3727 101.995
lowerback 23.5225 -1.64788 -1.22723
upperback 6.60045 -2.00968 -1.54765
thorax -5.85498 -0.745863 -0.439104
lowerneck 4.27473 -1.1276 0.357107
upperneck -10.5183 -1.23315 1.70567
head -4.19999 -0.668391 0.565822
rclavicle 1.3418e-015 3.13583e-014
rhumerus -35.2859 -2.03581 -86.0909
rradius 30.4468
rwrist -1.26792
rhand -21.0536 -8.31056
rfingers 7.12502
rthumb 5.32262 -38.2237
lclavicle 1.3418e-015 3.13583e-014
lhumerus -36.3519 -0.588913 87.0667
lradius 27.7529
lwrist 23.3424
lhand -15.0565 8.32964
lfingers 7.12502
lthumb 11.1102 38.0155
rfemur -61.0102 4.27254 11.5851
rtibia 36.0875
rfoot -14.8047 -13.0453
rtoes 3.77679
lfemur -6.2746 5.3022 -29.9309
ltibia 26.0932
lfoot -23.4002 1.61179
ltoes -11.1338
541
root 10.8268 15.8718 -5.68276 122.084 84.7046 103.271
lowerback 23.6728 -1.65779 -0.881417
upperback 6.57523 -1.94059 -1.44974
thorax -5.96789 -0.714663 -0.546648
lowerneck 4.32942 -1.12171 0.340604
upperneck -10.5709 -1.22613 1.69409
head -4.22988 -0.663974 0.565522
rclavicle -1.88845e-015 -2.45002e-014
rhumerus -35.3349 -2.06438 -86.0198
rradius 30.41
rwrist -1.23661
rhand -21.1329 -8.2988
rfingers 7.12502
rthumb 5.24598 -38.2139
lclavicle -1.88845e-015 -2.45002e-014
lhumerus -36.4075 -0.407695 87.0063
lradius 27.7402
lwrist 23.2922
lhand -15.1579 8.3496
lfingers 7.12502
lthumb 11.0125 38.0407
rfemur -61.5279 4.37811 12.1711
rtibia 38.1118
rfoot -13.551 -13.253
rtoes 5.25224
lfemur -5.81539 5.3383 -29.2883
ltibia 26.8286
lfoot -23.5898 1.38932
ltoes -12.3416
542
root 11.0128 15.8281 -5.66246 122.852 85.1044 104.164
lowerback 23.9191 -1.6636 -0.530729
upperback 6.55328 -1.8625 -1.34995
thorax -6.12494 -0.678563 -0.656387
lowerneck 4.37165 -1.09766 0.336401
upperneck -10.6296 -1.19439 1.67121
head -4.25985 -0.647086 0.557931
rclavicle 1.73937e-014 2.42517e-014
rhumerus -35.3283 -2.03938 -85.9789
rradius 30.3607
rwrist -1.19563
rhand -21.2203 -8.27934
rfingers 7.12502
rthumb 5.1616 -38.1965
lclavicle 1.73937e-014 2.42517e-014
lhumerus -36.4683 -0.210459 86.9346
lradius 27.7311
lwrist 23.2932
lhand -15.3322 8.33878
lfingers 7.12502
lthumb 10.8444 38.0388
rfemur -62.0351 4.49802 12.8442
rtibia 40.1448
rfoot -12.4255 -13.3856
rtoes 6.38294
lfemur -5.44337 5.42753 -28.5924
ltibia 27.7531
lfoot -23.6817 1.10648
ltoes -13.6925
543
root 11.1984 15.7886 -5.64154 123.085 85.5217 104.538
lowerback 24.2304 -1.66655 -0.230689
upperback 6.53504 -1.78944 -1.2556
thorax -6.30836 -0.644272 -0.741306
lowerneck 4.42712 -1.05391 0.337119
upperneck -10.6997 -1.13548 1.64541
head -4.29691 -0.616823 0.547291
rclavicle 6.55989e-015 -2.98177e-016
rhumerus -35.261 -1.9631 -85.9643
rradius 30.2882
rwrist -1.11548
rhand -21.3317 -8.23862
rfingers 7.12502
rthumb 5.05404 -38.1583
lclavicle 6.55989e-015 -2.98177e-016
lhumerus -36.5413 -0.0142096 86.8641
lradius 27.7288
lwrist 23.3554
lhand -15.5661 8.27946
lfingers 7.12502
lthumb 10.6187 37.9912
rfemur -62.5305 4.6195 13.5597
rtibia 42.2019
rfoot -11.4219 -13.3252
rtoes 7.45501
lfemur -5.23109 5.58113 -27.8866
ltibia 28.9988
lfoot -23.7237 0.708801
ltoes -15.1297
544
root 11.3843 15.7546 -5.61971 122.771 85.8993 104.362
lowerback 24.5653 -1.67007 -0.0217078
upperback 6.52272 -1.73625 -1.1751
thorax -6.4942 -0.618684 -0.783715
lowerneck 4.48382 -0.996991 0.346461
upperneck -10.768 -1.05807 1.61896
head -4.33384 -0.577713 0.533869
rclavicle -1.44119e-015 1.27222e-014
rhumerus -35.1291 -1.87125 -85.963
rradius 30.1984
rwrist -0.995076
rhand -21.4098 -8.20855
rfingers 7.12502
rthumb 4.97863 -38.1301
lclavicle -1.44119e-015 1.27222e-014
lhumerus -36.611 0.142589 86.8106
lradius 27.7252
lwrist 23.4807
lhand -15.8342 8.17032
lfingers 7.12502
lthumb 10.3601 37.8951
rfemur -62.9139 4.70411 14.284
rtibia 44.0789
rfoot -10.3733 -13.119
rtoes 8.78869
lfemur -5.06481 5.77987 -27.2135
ltibia 30.3001
lfoot -23.5699 0.152389
ltoes -16.506
545
root 11.5671 15.6925 -5.59604 122.133 86.1977 103.841
lowerback 24.8772 -1.67681 0.0914129
upperback 6.51556 -1.70957 -1.11319
thorax -6.66023 -0.605029 -0.784384
lowerneck 4.58145 -0.932162 0.34257
upperneck -10.8517 -0.967626 1.62013
head -4.38455 -0.533231 0.531783
rclavicle -1.3244e-014 -2.72087e-014
rhumerus -34.9481 -1.8053 -85.9653
rradius 30.1011
rwrist -0.833966
rhand -21.4756 -8.18626
rfingers 7.12502
rthumb 4.91514 -38.1093
lclavicle -1.3244e-014 -2.72087e-014
lhumerus -36.6571 0.238983 86.7804
lradius 27.7069
lwrist 23.6286
lhand -16.0831 8.0874
lfingers 7.12502
lthumb 10.12 37.824
rfemur -63.3503 4.74069 14.9772
rtibia 45.8495
rfoot -9.24064 -12.8775
rtoes 10.4903
lfemur -4.98152 5.9873 -26.5963
ltibia 31.7084
lfoot -23.246 -0.566909
ltoes -17.7566
546
root 11.7522 15.6739 -5.57204 121.582 86.4051 103.361
lowerback 25.1295 -1.68979 0.128961
upperback 6.51084 -1.71046 -1.07093
thorax -6.79204 -0.604134 -0.755886
lowerneck 4.68393 -0.87029 0.334237
upperneck -10.9187 -0.878747 1.65158
head -4.43018 -0.490947 0.540566
rclavicle 8.39865e-015 -8.07563e-015
rhumerus -34.7377 -1.79835 -85.9696
rradius 30.0137
rwrist -0.643814
rhand -21.5704 -8.16477
rfingers 7.12502
rthumb 4.82358 -38.0899
lclavicle 8.39865e-015 -8.07563e-015
lhumerus -36.6529 0.266607 86.7713
lradius 27.666
lwrist 23.7434
lhand -16.2716 8.07295
lfingers 7.12502
lthumb 9.9381 37.8184
rfemur -63.5155 4.76205 15.5797
rtibia 47.2916
rfoot -8.30803 -12.619
rtoes 12.3635
lfemur -4.9848 6.16212 -26.0335
ltibia 33.0616
lfoot -22.6034 -1.42519
ltoes -18.7803
547
root 11.9358 15.6643 -5.54666 121.629 86.5366 103.416
lowerback 25.2975 -1.7107 0.13325
upperback 6.50642 -1.73181 -1.04456
thorax -6.88082 -0.613202 -0.720616
lowerneck 4.75542 -0.821941 0.324442
upperneck -10.938 -0.805848 1.71845
head -4.45209 -0.4582 0.561717
rclavicle -9.15652e-015 -2.43449e-014
rhumerus -34.5241 -1.8606 -85.9812
rradius 29.963
rwrist -0.474234
rhand -21.7035 -8.16292
rfingers 7.12502
rthumb 4.69504 -38.0909
lclavicle -9.15652e-015 -2.43449e-014
lhumerus -36.5702 0.230446 86.7722
lradius 27.5875
lwrist 23.7722
lhand -16.3896 8.07409
lfingers 7.12502
lthumb 9.82433 37.8249
rfemur -63.5588 4.81163 16.0646
rtibia 48.4277
rfoot -7.60623 -12.4604
rtoes 14.1267
lfemur -5.06158 6.25999 -25.5055
ltibia 34.3158
lfoot -21.6266 -2.3731
ltoes -19.5284
548
root 12.1177 15.6634 -5.51972 122.695 86.6305 104.419
lowerback 25.3713 -1.74075 0.154679
upperback 6.50225 -1.76243 -1.02493
thorax -6.92296 -0.62759 -0.700945
lowerneck 4.78204 -0.787765 0.309574
upperneck -10.9022 -0.75053 1.81971
head -4.44467 -0.435425 0.595509
rclavicle -1.28216e-014 1.80055e-014
rhumerus -34.3292 -1.978 -86.0095
rradius 29.9687
rwrist -0.35776
rhand -21.9069 -8.17502
rfingers 7.12502
rthumb 4.49869 -38.1072
lclavicle -1.28216e-014 1.80055e-014
lhumerus -36.4027 0.147552 86.7701
lradius 27.4851
lwrist 23.6807
lhand -16.4231 8.13015
lfingers 7.12502
lthumb 9.79199 37.8825
rfemur -63.5016 4.94876 16.4275
rtibia 49.2935
rfoot -7.24551 -12.4676
rtoes 15.491
lfemur -5.26094 6.2538 -24.9717
ltibia 35.5417
lfoot -20.34 -3.35062
ltoes -19.9096
549
root 12.3023 15.7046 -5.49113 125.089 86.7222 106.674
lowerback 25.3518 -1.78068 0.235245
upperback 6.49358 -1.79277 -1.00267
thorax -6.92516 -0.64345 -0.713651
lowerneck 4.74181 -0.768756 0.294306
upperneck -10.7982 -0.715591 1.94389
head -4.39887 -0.423358 0.637084
rclavicle 1.07716e-014 -4.27387e-015
rhumerus -34.171 -2.11821 -86.0681
rradius 30.0407
rwrist -0.327127
rhand -22.1937 -8.19518
rfingers 7.12502
rthumb 4.2217 -38.1331
lclavicle 1.07716e-014 -4.27387e-015
lhumerus -36.1643 0.0412283 86.7542
lradius 27.3829
lwrist 23.4667
lhand -16.3852 8.16977
lfingers 7.12502
lthumb 9.82849 37.9204
rfemur -63.2229 5.19827 16.6932
rtibia 49.8974
rfoot -7.37103 -12.608
rtoes 16.3281
lfemur -5.65621 6.13361 -24.3933
ltibia 36.8455
lfoot -18.7889 -4.32945
ltoes -19.9057
550
root 12.4802 15.7144 -5.46092 128.88 86.8278 110.265
lowerback 25.2666 -1.82959 0.389539
upperback 6.47884 -1.81737 -0.970365
thorax -6.90312 -0.658191 -0.760303
lowerneck 4.63054 -0.761007 0.278771
upperneck -10.6406 -0.697583 2.07195
head -4.31929 -0.419132 0.679778
rclavicle -1.91827e-014 1.71452e-015
rhumerus -34.0597 -2.23229 -86.1647
rradius 30.1911
rwrist -0.422227
rhand -22.5111 -8.23092
rfingers 7.12502
rthumb 3.91524 -38.1747
lclavicle -1.91827e-014 1.71452e-015
lhumerus -35.885 -0.0745811 86.7256
lradius 27.3252
lwrist 23.1755
lhand -16.3161 8.20585
lfingers 7.12502
lthumb 9.89523 37.9533
rfemur -63.1093 5.54067 16.9153
rtibia 50.5056
rfoot -7.76701 -12.8771
rtoes 16.6475
lfemur -6.30339 5.90365 -23.7547
ltibia 38.4364
lfoot -17.1388 -5.26379
ltoes -19.4912
551
root 12.6558 15.7279 -5.42996 134.051 86.9434 115.19
lowerback 25.1487 -1.88486 0.618134
upperback 6.45363 -1.83279 -0.925997
thorax -6.87811 -0.670017 -0.839534
lowerneck 4.48382 -0.760184 0.261587
upperneck -10.4731 -0.690858 2.19002
head -4.22931 -0.419395 0.719446
rclavicle -9.7653e-015 2.40032e-014
rhumerus -33.9991 -2.28087 -86.3032
rradius 30.4103
rwrist -0.634576
rhand -22.8476 -8.25698
rfingers 7.12502
rthumb 3.59029 -38.2065
lclavicle -9.7653e-015 2.40032e-014
lhumerus -35.6029 -0.186415 86.6875
lradius 27.3478
lwrist 22.8638
lhand -16.2424 8.20148
lfingers 7.12502
lthumb 9.96627 37.9455
rfemur -62.9804 5.93259 17.1348
rtibia 51.0175
rfoot -8.37555 -13.1979
rtoes 16.5715
lfemur -7.14739 5.58736 -23.0564
ltibia 40.203
lfoot -15.36 -6.11295
ltoes -18.6591
